<svg height="512pt" viewBox="0 -9 512.00003 512" width="512pt" xmlns="http://www.w3.org/2000/svg"><path d="m392.535156 42.667969h-59.734375c-4.714843 0-8.535156-3.820313-8.535156-8.535157 0-4.710937 3.820313-8.53125 8.535156-8.53125h59.734375c4.710938 0 8.53125 3.820313 8.53125 8.53125 0 4.714844-3.820312 8.535157-8.53125 8.535157zm0 0" fill="#35495e"/><path d="m418.132812 0c14.140626 0 25.601563 11.460938 25.601563 25.601562v59.730469h-51.199219v-59.730469c0-14.140624 11.460938-25.601562 25.597656-25.601562zm0 0" fill="#bdc3c7"/><path d="m503.464844 42.667969h-68.265625c-4.710938 0-8.53125-3.820313-8.53125-8.535157 0-4.710937 3.820312-8.53125 8.53125-8.53125h68.265625c4.714844 0 8.535156 3.820313 8.535156 8.53125 0 4.714844-3.820312 8.535157-8.535156 8.535157zm0 0" fill="#35495e"/><path d="m392.535156 68.265625h51.199219c4.710937 0 8.53125 3.820313 8.53125 8.535156v51.199219h-68.265625v-51.199219c0-4.714843 3.820312-8.535156 8.535156-8.535156zm0 0" fill="#c03a2b"/><path d="m68.265625 42.667969h-59.730469c-4.714844 0-8.535156-3.820313-8.535156-8.535157 0-4.710937 3.820312-8.53125 8.535156-8.53125h59.730469c4.714844 0 8.535156 3.820313 8.535156 8.53125 0 4.714844-3.820312 8.535157-8.535156 8.535157zm0 0" fill="#35495e"/><path d="m93.867188 0c14.136718 0 25.597656 11.460938 25.597656 25.601562v59.730469h-51.199219v-59.730469c0-14.140624 11.460937-25.601562 25.601563-25.601562zm0 0" fill="#bdc3c7"/><path d="m179.199219 42.667969h-68.265625c-4.714844 0-8.535156-3.820313-8.535156-8.535157 0-4.710937 3.820312-8.53125 8.535156-8.53125h68.265625c4.714843 0 8.535156 3.820313 8.535156 8.53125 0 4.714844-3.820313 8.535157-8.535156 8.535157zm0 0" fill="#35495e"/><path d="m68.265625 68.265625h51.199219c4.714844 0 8.535156 3.820313 8.535156 8.535156v51.199219h-68.265625v-51.199219c0-4.714843 3.820313-8.535156 8.53125-8.535156zm0 0" fill="#c03a2b"/><path d="m99.753906 153.683594c-.347656.195312-.71875.339844-1.109375.429687-2.304687.9375-55.976562 25.769531-55.976562 212.308594.136719 9.578125-7.488281 17.472656-17.066407 17.664063-4.609374-.078126-8.996093-1.980469-12.195312-5.292969-3.203125-3.316407-4.957031-7.765625-4.871094-12.371094 0-119.039063 21.503906-180.820313 42.496094-212.820313zm0 0" fill="#5e5f62"/><path d="m460.96875 153.601562c20.992188 32 42.496094 93.78125 42.496094 212.820313 0 9.425781-7.640625 17.066406-17.066406 17.066406-9.425782 0-17.066407-7.640625-17.066407-17.066406 0-186.539063-53.671875-211.371094-55.976562-212.308594-.390625-.089843-.761719-.234375-1.109375-.429687zm0 0" fill="#5e5f62"/><path d="m204.800781 136.535156h102.398438v85.332032h-102.398438zm0 0" fill="#f3d55b"/><path d="m503.398438 134.65625c.523437 7.097656-1.933594 14.089844-6.777344 19.304688-4.84375 5.210937-11.636719 8.171874-18.753906 8.171874h-425.226563c-13.785156.285157-25.496094-10.023437-26.972656-23.730468-.519531-7.09375 1.9375-14.085938 6.78125-19.296875 4.84375-5.210938 11.636719-8.171875 18.75-8.171875h85.878906c18.601563.164062 36.878906-4.859375 52.78125-14.507813 19.800781-12.546875 42.699219-19.339843 66.140625-19.625 23.441406.285157 46.339844 7.078125 66.140625 19.625 15.902344 9.648438 34.179687 14.671875 52.78125 14.507813h101.546875c13.761719-.257813 25.449219 10.035156 26.929688 23.722656zm0 0" fill="#bdc3c7"/><path d="m435.199219 308.820312v161.367188c0 13.667969-11.078125 24.746094-24.746094 24.746094h-308.90625c-13.667969 0-24.746094-11.078125-24.746094-24.746094v-161.367188c.003907-33.882812 27.46875-61.347656 61.355469-61.355468h32.511719l34.132812-51.199219h102.398438l34.132812 51.199219h32.511719c33.886719.007812 61.351562 27.472656 61.355469 61.355468zm0 0" fill="#35495e"/><path d="m358.398438 366.933594c0 56.554687-45.84375 102.398437-102.398438 102.398437s-102.398438-45.84375-102.398438-102.398437c0-56.554688 45.84375-102.398438 102.398438-102.398438s102.398438 45.84375 102.398438 102.398438zm0 0" fill="#2980ba"/><path d="m324.265625 366.933594c0 32.390625-22.765625 60.324218-54.492187 66.859375-31.726563 6.535156-63.679688-10.125-76.480469-39.882813-12.804688-29.753906-2.933594-64.410156 23.625-82.953125 26.558593-18.546875 62.492187-15.871093 86.015625 6.398438 13.621094 12.894531 21.335937 30.824219 21.332031 49.578125zm0 0" fill="#90bae1"/><path d="m334.507812 301.140625c-10.953124 4.527344-21.515624 9.949219-31.574218 16.214844-17.820313-16.660157-43.175782-22.550781-66.511719-15.449219-23.339844 7.101562-41.117187 26.113281-46.636719 49.878906-5.519531 23.761719 2.058594 48.664063 19.878906 65.324219-5.578124 10.382813-10.507812 21.097656-14.761718 32.085937-31.667969-23.546874-46.992188-63.1875-39.402344-101.910156 7.589844-38.726562 36.746094-69.648437 74.960938-79.496094 38.210937-9.851562 78.679687 3.125 104.046874 33.351563zm0 0" fill="#3b97d3"/><path d="m302.933594 317.355469c-39.394532 24.382812-71.585938 58.8125-93.269532 99.753906-17.820312-16.660156-25.398437-41.5625-19.878906-65.324219 5.519532-23.765625 23.296875-42.777344 46.636719-49.878906 23.335937-7.101562 48.691406-1.210938 66.511719 15.449219zm0 0" fill="#b0d3f0"/><path d="m221.867188 375.464844c-4.714844 0-8.535157-3.820313-8.535157-8.53125.03125-23.550782 19.117188-42.640625 42.667969-42.667969 4.710938 0 8.535156 3.820313 8.535156 8.535156 0 4.710938-3.824218 8.53125-8.535156 8.53125-14.136719 0-25.601562 11.460938-25.601562 25.601563 0 4.710937-3.820313 8.53125-8.53125 8.53125zm0 0" fill="#e6e7e8"/></svg>